<svg width="80" height="80" viewBox="0 0 80 80" fill="none" xmlns="http://www.w3.org/2000/svg">
<g id="dias">
<g id="moving">
<path id="Vector" d="M53.8724 44.0166C52.6576 44.0921 51.461 44.376 50.3513 44.8521C49.8852 45.0507 49.0102 45.5202 48.7345 45.7188C48.6983 45.7434 48.5572 45.8452 48.4209 45.942C48.1271 46.1489 47.8201 46.3935 47.5657 46.6183C47.2981 46.8547 46.9501 47.183 46.9124 47.2339C46.8943 47.2585 46.809 47.3554 46.7236 47.4489C44.7161 49.6518 43.7443 52.6246 44.0578 55.6039C44.309 57.9989 45.3645 60.2149 47.07 61.9221C48.1616 63.0137 49.4157 63.8196 50.8701 64.3613C51.5365 64.6092 52.29 64.8013 53.0106 64.903C53.5703 64.9818 53.8477 64.9999 54.4879 64.9999C55.1018 65.0015 55.3399 64.9867 55.8175 64.926C55.9571 64.908 56.1163 64.8883 56.1705 64.885C56.2246 64.8801 56.3691 64.8538 56.4906 64.8275C57.6511 64.5649 58.2913 64.3466 59.158 63.9181C59.7916 63.6046 60.2611 63.3173 60.7995 62.9135C61.2279 62.5918 61.2673 62.5475 61.1885 62.4687C61.1606 62.4408 61.118 62.4359 60.8061 62.4276C57.9466 62.3439 55.2479 61.0504 53.3454 58.8541C51.4019 56.6085 50.527 53.5914 50.9603 50.6302C51.3182 48.1778 52.551 45.9453 54.4469 44.312C54.6373 44.1479 54.6357 44.1512 54.6357 44.0953C54.6357 44.01 54.5995 43.9985 54.3303 44.0001C54.1957 44.0018 53.9905 44.01 53.8724 44.0166Z" fill="#7C7C7C"/>
<circle id="sun" cx="25.8578" cy="25.8579" r="10" transform="rotate(-135 25.8578 25.8579)" fill="#F4E451"/>
</g>
<circle id="centerMarker" cx="40" cy="40.0001" r="3" fill="black"/>
<path id="cover" d="M55.3099 3.04598C61.1049 5.44683 66.2541 9.17691 70.3415 13.935C74.429 18.693 77.3401 24.3456 78.8398 30.4364C80.3396 36.5271 80.3859 42.8852 78.975 48.9971C77.5641 55.109 74.7356 60.8034 70.7179 65.6205C66.7002 70.4376 61.6059 74.2423 55.8465 76.7273C50.0871 79.2123 43.824 80.3079 37.563 79.9258C31.302 79.5436 25.2186 77.6943 19.8042 74.5273C14.3898 71.3603 9.79604 66.9643 6.39403 61.6943L40 40.0001L55.3099 3.04598Z" fill="#2F44E4"/>
</g>
</svg>
