<svg width="80" height="80" viewBox="0 0 80 80" fill="none" xmlns="http://www.w3.org/2000/svg">
<path d="M59.799 46.5919C58.1575 46.5919 56.532 46.9152 55.0154 47.5434C53.4989 48.1716 52.1209 49.0923 50.9602 50.2531C49.7994 51.4138 48.8787 52.7918 48.2505 54.3083C47.6223 55.8249 47.299 57.4504 47.299 59.0919C47.299 60.7334 47.6223 62.3589 48.2505 63.8754C48.8787 65.392 49.7994 66.77 50.9602 67.9307C52.1209 69.0915 53.4989 70.0122 55.0154 70.6404C56.532 71.2686 58.1575 71.5919 59.799 71.5919L59.799 59.0919V46.5919Z" fill="#C4C4C4"/>
<circle cx="20.4523" cy="20.9081" r="12.5" transform="rotate(-90 20.4523 20.9081)" fill="#F4E451"/>
<path d="M40 4.76837e-06C47.9112 4.76837e-06 55.6448 2.34596 62.2228 6.74122C68.8008 11.1365 73.9277 17.3836 76.9552 24.6927C79.9827 32.0017 80.7748 40.0444 79.2314 47.8036C77.688 55.5629 73.8784 62.6902 68.2843 68.2843C62.6902 73.8784 55.5628 77.688 47.8036 79.2314C40.0444 80.7748 32.0017 79.9827 24.6927 76.9552C17.3836 73.9277 11.1365 68.8008 6.74121 62.2228C2.34596 55.6448 -9.43407e-08 47.9113 0 40L40 40L40 4.76837e-06Z" fill="#2F44E4"/>
</svg>
