<svg width="60" height="60" viewBox="0 0 60 60" fill="none" xmlns="http://www.w3.org/2000/svg">
<g id="Group 1">
<rect id="Rectangle 1" width="60" height="60" fill="#C4C4C4"/>
<circle id="centerMarker" cx="30" cy="30.0001" r="3" fill="black"/>
<path id="Vector" d="M30.8724 39.0166C29.6576 39.0921 28.461 39.376 27.3513 39.8521C26.8852 40.0507 26.0102 40.5202 25.7345 40.7188C25.6983 40.7434 25.5572 40.8452 25.4209 40.942C25.1271 41.1489 24.8201 41.3935 24.5657 41.6183C24.2981 41.8547 23.9501 42.183 23.9124 42.2339C23.8943 42.2585 23.809 42.3554 23.7236 42.4489C21.7161 44.6518 20.7443 47.6246 21.0578 50.6039C21.309 52.9989 22.3645 55.2149 24.07 56.9221C25.1616 58.0137 26.4157 58.8196 27.8701 59.3613C28.5365 59.6092 29.29 59.8013 30.0106 59.903C30.5703 59.9818 30.8477 59.9999 31.4879 59.9999C32.1018 60.0015 32.3399 59.9867 32.8175 59.926C32.9571 59.908 33.1163 59.8883 33.1705 59.885C33.2246 59.8801 33.3691 59.8538 33.4906 59.8275C34.6511 59.5649 35.2913 59.3466 36.158 58.9181C36.7916 58.6046 37.2611 58.3173 37.7995 57.9135C38.2279 57.5918 38.2673 57.5475 38.1885 57.4687C38.1606 57.4408 38.118 57.4359 37.8061 57.4276C34.9466 57.3439 32.2479 56.0504 30.3454 53.8541C28.4019 51.6085 27.527 48.5914 27.9603 45.6302C28.3182 43.1778 29.551 40.9453 31.4469 39.312C31.6373 39.1479 31.6357 39.1512 31.6357 39.0953C31.6357 39.01 31.5995 38.9985 31.3303 39.0001C31.1957 39.0018 30.9905 39.01 30.8724 39.0166Z" fill="#7C7C7C"/>
<circle id="sun" cx="30" cy="10" r="10" fill="#F4E451"/>
</g>
</svg>
