<svg id="visual" viewBox="0 0 900 600" width="900" height="600" xmlns="http://www.w3.org/2000/svg" xmlns:xlink="http://www.w3.org/1999/xlink" version="1.1"><rect x="0" y="0" width="900" height="600" fill="#001220"></rect><path d="M0 184L21.5 183C43 182 86 180 128.8 174.5C171.7 169 214.3 160 257.2 162.5C300 165 343 179 385.8 185.7C428.7 192.3 471.3 191.7 514.2 182C557 172.3 600 153.7 642.8 153.3C685.7 153 728.3 171 771.2 173.8C814 176.7 857 164.3 878.5 158.2L900 152L900 0L878.5 0C857 0 814 0 771.2 0C728.3 0 685.7 0 642.8 0C600 0 557 0 514.2 0C471.3 0 428.7 0 385.8 0C343 0 300 0 257.2 0C214.3 0 171.7 0 128.8 0C86 0 43 0 21.5 0L0 0Z" fill="#fa7268"></path><path d="M0 172L21.5 162.8C43 153.7 86 135.3 128.8 136.3C171.7 137.3 214.3 157.7 257.2 168.3C300 179 343 180 385.8 179.8C428.7 179.7 471.3 178.3 514.2 173.2C557 168 600 159 642.8 149C685.7 139 728.3 128 771.2 131.7C814 135.3 857 153.7 878.5 162.8L900 172L900 0L878.5 0C857 0 814 0 771.2 0C728.3 0 685.7 0 642.8 0C600 0 557 0 514.2 0C471.3 0 428.7 0 385.8 0C343 0 300 0 257.2 0C214.3 0 171.7 0 128.8 0C86 0 43 0 21.5 0L0 0Z" fill="#f56967"></path><path d="M0 155L21.5 150.5C43 146 86 137 128.8 132C171.7 127 214.3 126 257.2 131C300 136 343 147 385.8 148.2C428.7 149.3 471.3 140.7 514.2 134.8C557 129 600 126 642.8 122.2C685.7 118.3 728.3 113.7 771.2 111.8C814 110 857 111 878.5 111.5L900 112L900 0L878.5 0C857 0 814 0 771.2 0C728.3 0 685.7 0 642.8 0C600 0 557 0 514.2 0C471.3 0 428.7 0 385.8 0C343 0 300 0 257.2 0C214.3 0 171.7 0 128.8 0C86 0 43 0 21.5 0L0 0Z" fill="#ef5f67"></path><path d="M0 95L21.5 99.7C43 104.3 86 113.7 128.8 114.8C171.7 116 214.3 109 257.2 110C300 111 343 120 385.8 125.7C428.7 131.3 471.3 133.7 514.2 133.2C557 132.7 600 129.3 642.8 125.8C685.7 122.3 728.3 118.7 771.2 113.5C814 108.3 857 101.7 878.5 98.3L900 95L900 0L878.5 0C857 0 814 0 771.2 0C728.3 0 685.7 0 642.8 0C600 0 557 0 514.2 0C471.3 0 428.7 0 385.8 0C343 0 300 0 257.2 0C214.3 0 171.7 0 128.8 0C86 0 43 0 21.5 0L0 0Z" fill="#e95667"></path><path d="M0 112L21.5 109.3C43 106.7 86 101.3 128.8 95.5C171.7 89.7 214.3 83.3 257.2 85.2C300 87 343 97 385.8 100.8C428.7 104.7 471.3 102.3 514.2 100.8C557 99.3 600 98.7 642.8 94.7C685.7 90.7 728.3 83.3 771.2 82.7C814 82 857 88 878.5 91L900 94L900 0L878.5 0C857 0 814 0 771.2 0C728.3 0 685.7 0 642.8 0C600 0 557 0 514.2 0C471.3 0 428.7 0 385.8 0C343 0 300 0 257.2 0C214.3 0 171.7 0 128.8 0C86 0 43 0 21.5 0L0 0Z" fill="#e34c67"></path><path d="M0 58L21.5 61.3C43 64.7 86 71.3 128.8 75.7C171.7 80 214.3 82 257.2 82.8C300 83.7 343 83.3 385.8 79.8C428.7 76.3 471.3 69.7 514.2 70.8C557 72 600 81 642.8 81.7C685.7 82.3 728.3 74.7 771.2 71.5C814 68.3 857 69.7 878.5 70.3L900 71L900 0L878.5 0C857 0 814 0 771.2 0C728.3 0 685.7 0 642.8 0C600 0 557 0 514.2 0C471.3 0 428.7 0 385.8 0C343 0 300 0 257.2 0C214.3 0 171.7 0 128.8 0C86 0 43 0 21.5 0L0 0Z" fill="#dc4267"></path><path d="M0 68L21.5 68.5C43 69 86 70 128.8 71.2C171.7 72.3 214.3 73.7 257.2 73.7C300 73.7 343 72.3 385.8 71.8C428.7 71.3 471.3 71.7 514.2 67C557 62.3 600 52.7 642.8 50C685.7 47.3 728.3 51.7 771.2 56C814 60.3 857 64.7 878.5 66.8L900 69L900 0L878.5 0C857 0 814 0 771.2 0C728.3 0 685.7 0 642.8 0C600 0 557 0 514.2 0C471.3 0 428.7 0 385.8 0C343 0 300 0 257.2 0C214.3 0 171.7 0 128.8 0C86 0 43 0 21.5 0L0 0Z" fill="#d53867"></path><path d="M0 48L21.5 44.5C43 41 86 34 128.8 34.7C171.7 35.3 214.3 43.7 257.2 45C300 46.3 343 40.7 385.8 40.7C428.7 40.7 471.3 46.3 514.2 47.7C557 49 600 46 642.8 45.2C685.7 44.3 728.3 45.7 771.2 46.7C814 47.7 857 48.3 878.5 48.7L900 49L900 0L878.5 0C857 0 814 0 771.2 0C728.3 0 685.7 0 642.8 0C600 0 557 0 514.2 0C471.3 0 428.7 0 385.8 0C343 0 300 0 257.2 0C214.3 0 171.7 0 128.8 0C86 0 43 0 21.5 0L0 0Z" fill="#ce2e68"></path><path d="M0 21L21.5 21.7C43 22.3 86 23.7 128.8 25.7C171.7 27.7 214.3 30.3 257.2 28.8C300 27.3 343 21.7 385.8 19.7C428.7 17.7 471.3 19.3 514.2 22.2C557 25 600 29 642.8 28.8C685.7 28.7 728.3 24.3 771.2 21.3C814 18.3 857 16.7 878.5 15.8L900 15L900 0L878.5 0C857 0 814 0 771.2 0C728.3 0 685.7 0 642.8 0C600 0 557 0 514.2 0C471.3 0 428.7 0 385.8 0C343 0 300 0 257.2 0C214.3 0 171.7 0 128.8 0C86 0 43 0 21.5 0L0 0Z" fill="#c62368"></path></svg>