<svg id="visual" viewBox="0 0 960 300" width="960" height="300" xmlns="http://www.w3.org/2000/svg" xmlns:xlink="http://www.w3.org/1999/xlink" version="1.1"><rect x="0" y="0" width="960" height="300" fill="#001220"></rect><path d="M0 178L22.8 176.3C45.7 174.7 91.3 171.3 137 161.5C182.7 151.7 228.3 135.3 274 134C319.7 132.7 365.3 146.3 411.2 158.8C457 171.3 503 182.7 548.8 181.8C594.7 181 640.3 168 686 154.5C731.7 141 777.3 127 823 131.7C868.7 136.3 914.3 159.7 937.2 171.3L960 183L960 301L937.2 301C914.3 301 868.7 301 823 301C777.3 301 731.7 301 686 301C640.3 301 594.7 301 548.8 301C503 301 457 301 411.2 301C365.3 301 319.7 301 274 301C228.3 301 182.7 301 137 301C91.3 301 45.7 301 22.8 301L0 301Z" fill="#fa7268"></path><path d="M0 236L22.8 237.8C45.7 239.7 91.3 243.3 137 241C182.7 238.7 228.3 230.3 274 225.8C319.7 221.3 365.3 220.7 411.2 223.7C457 226.7 503 233.3 548.8 234.3C594.7 235.3 640.3 230.7 686 223.3C731.7 216 777.3 206 823 202.3C868.7 198.7 914.3 201.3 937.2 202.7L960 204L960 301L937.2 301C914.3 301 868.7 301 823 301C777.3 301 731.7 301 686 301C640.3 301 594.7 301 548.8 301C503 301 457 301 411.2 301C365.3 301 319.7 301 274 301C228.3 301 182.7 301 137 301C91.3 301 45.7 301 22.8 301L0 301Z" fill="#e34c67"></path><path d="M0 230L22.8 234.2C45.7 238.3 91.3 246.7 137 254.8C182.7 263 228.3 271 274 275C319.7 279 365.3 279 411.2 279C457 279 503 279 548.8 273.2C594.7 267.3 640.3 255.7 686 253.7C731.7 251.7 777.3 259.3 823 256.2C868.7 253 914.3 239 937.2 232L960 225L960 301L937.2 301C914.3 301 868.7 301 823 301C777.3 301 731.7 301 686 301C640.3 301 594.7 301 548.8 301C503 301 457 301 411.2 301C365.3 301 319.7 301 274 301C228.3 301 182.7 301 137 301C91.3 301 45.7 301 22.8 301L0 301Z" fill="#c62368"></path></svg>