<svg id="visual" viewBox="0 0 900 600" width="900" height="600" xmlns="http://www.w3.org/2000/svg" xmlns:xlink="http://www.w3.org/1999/xlink" version="1.1"><rect x="0" y="0" width="900" height="600" fill="#001220"></rect><path d="M0 468L21.5 464.2C43 460.3 86 452.7 128.8 442.7C171.7 432.7 214.3 420.3 257.2 421.2C300 422 343 436 385.8 447.2C428.7 458.3 471.3 466.7 514.2 466.2C557 465.7 600 456.3 642.8 448.5C685.7 440.7 728.3 434.3 771.2 426.3C814 418.3 857 408.7 878.5 403.8L900 399L900 601L878.5 601C857 601 814 601 771.2 601C728.3 601 685.7 601 642.8 601C600 601 557 601 514.2 601C471.3 601 428.7 601 385.8 601C343 601 300 601 257.2 601C214.3 601 171.7 601 128.8 601C86 601 43 601 21.5 601L0 601Z" fill="#fa7268"></path><path d="M0 436L21.5 445.7C43 455.3 86 474.7 128.8 485.5C171.7 496.3 214.3 498.7 257.2 494.3C300 490 343 479 385.8 479C428.7 479 471.3 490 514.2 494.5C557 499 600 497 642.8 496C685.7 495 728.3 495 771.2 488.3C814 481.7 857 468.3 878.5 461.7L900 455L900 601L878.5 601C857 601 814 601 771.2 601C728.3 601 685.7 601 642.8 601C600 601 557 601 514.2 601C471.3 601 428.7 601 385.8 601C343 601 300 601 257.2 601C214.3 601 171.7 601 128.8 601C86 601 43 601 21.5 601L0 601Z" fill="#ef5f67"></path><path d="M0 484L21.5 484.8C43 485.7 86 487.3 128.8 489.8C171.7 492.3 214.3 495.7 257.2 498.5C300 501.3 343 503.7 385.8 501.7C428.7 499.7 471.3 493.3 514.2 495.5C557 497.7 600 508.3 642.8 514.8C685.7 521.3 728.3 523.7 771.2 522.2C814 520.7 857 515.3 878.5 512.7L900 510L900 601L878.5 601C857 601 814 601 771.2 601C728.3 601 685.7 601 642.8 601C600 601 557 601 514.2 601C471.3 601 428.7 601 385.8 601C343 601 300 601 257.2 601C214.3 601 171.7 601 128.8 601C86 601 43 601 21.5 601L0 601Z" fill="#e34c67"></path><path d="M0 531L21.5 527.7C43 524.3 86 517.7 128.8 516.5C171.7 515.3 214.3 519.7 257.2 525.8C300 532 343 540 385.8 538C428.7 536 471.3 524 514.2 522.5C557 521 600 530 642.8 534.2C685.7 538.3 728.3 537.7 771.2 537.2C814 536.7 857 536.3 878.5 536.2L900 536L900 601L878.5 601C857 601 814 601 771.2 601C728.3 601 685.7 601 642.8 601C600 601 557 601 514.2 601C471.3 601 428.7 601 385.8 601C343 601 300 601 257.2 601C214.3 601 171.7 601 128.8 601C86 601 43 601 21.5 601L0 601Z" fill="#d53867"></path><path d="M0 570L21.5 568.5C43 567 86 564 128.8 559.7C171.7 555.3 214.3 549.7 257.2 548.8C300 548 343 552 385.8 556.5C428.7 561 471.3 566 514.2 568.8C557 571.7 600 572.3 642.8 571.8C685.7 571.3 728.3 569.7 771.2 569.3C814 569 857 570 878.5 570.5L900 571L900 601L878.5 601C857 601 814 601 771.2 601C728.3 601 685.7 601 642.8 601C600 601 557 601 514.2 601C471.3 601 428.7 601 385.8 601C343 601 300 601 257.2 601C214.3 601 171.7 601 128.8 601C86 601 43 601 21.5 601L0 601Z" fill="#c62368"></path></svg>