<svg viewBox="0 0 60 60" fill="none" xmlns="http://www.w3.org/2000/svg">
<path d="M30 0L34.4794 7.75862L25.5206 7.75862L30 0Z" fill="#E1DC5F"/>
<path d="M30 60L25.5206 52.2414H34.4794L30 60Z" fill="#E1DC5F"/>
<path d="M0 30L7.75862 25.5206V34.4794L0 30Z" fill="#E1DC5F"/>
<path d="M60 30L52.2414 34.4794V25.5206L60 30Z" fill="#E1DC5F"/>
<path d="M51.2132 8.78681L48.8945 17.4404L42.5596 11.1055L51.2132 8.78681Z" fill="#E1DC5F"/>
<path d="M8.7868 51.2132L11.1055 42.5596L17.4404 48.8945L8.7868 51.2132Z" fill="#E1DC5F"/>
<path d="M51.2132 51.2132L42.5596 48.8945L48.8945 42.5596L51.2132 51.2132Z" fill="#E1DC5F"/>
<path d="M8.78679 8.7868L17.4404 11.1055L11.1055 17.4404L8.78679 8.7868Z" fill="#E1DC5F"/>
<circle cx="30" cy="30" r="20.6897" fill="#E1DC5F"/>
</svg>
